<mxfile host="app.diagrams.net" modified="2023-07-13T14:29:35.597Z" agent="Mozilla/5.0 (X11; Linux x86_64) AppleWebKit/537.36 (KHTML, like Gecko) Chrome/114.0.0.0 Safari/537.36" etag="ckxvVl0MYfz3DimBG27B" version="21.6.2" type="github">
  <diagram id="Uc7Eat4LJt7RBU0-5OjE" name="Page-1">
    <mxGraphModel dx="3183" dy="1746" grid="1" gridSize="10" guides="1" tooltips="1" connect="1" arrows="1" fold="1" page="1" pageScale="1" pageWidth="1654" pageHeight="1169" math="0" shadow="0">
      <root>
        <mxCell id="0" />
        <mxCell id="1" parent="0" />
        <mxCell id="vzmAkZegJcYB33hXStO7-3" value="" style="rounded=1;whiteSpace=wrap;html=1;fontStyle=1;labelBackgroundColor=#FFFFFF;fontColor=#000000;" parent="1" vertex="1">
          <mxGeometry x="2873.8199999999997" y="269" width="149.96" height="330" as="geometry" />
        </mxCell>
        <mxCell id="FnRaTp6zV71Ba19_A0Tg-153" value="" style="rounded=1;whiteSpace=wrap;html=1;labelBackgroundColor=#ffffff;fillColor=#ffffff;gradientColor=#ffffff;fontSize=20;fontColor=#000000;" parent="1" vertex="1">
          <mxGeometry x="70" y="50" width="2110" height="240" as="geometry" />
        </mxCell>
        <mxCell id="FnRaTp6zV71Ba19_A0Tg-154" value="" style="rounded=1;whiteSpace=wrap;html=1;labelBackgroundColor=#ffffff;fillColor=#ffffff;gradientColor=#ffffff;fontSize=22;fontColor=#000000;" parent="1" vertex="1">
          <mxGeometry x="80" y="100" width="2110" height="1040" as="geometry" />
        </mxCell>
        <mxCell id="FnRaTp6zV71Ba19_A0Tg-135" value="" style="rounded=1;whiteSpace=wrap;html=1;labelBackgroundColor=#ffffff;fillColor=#ffffff;gradientColor=#ffffff;fontSize=20;fontColor=#000000;" parent="1" vertex="1">
          <mxGeometry x="602" y="1190" width="1000" height="120" as="geometry" />
        </mxCell>
        <mxCell id="FnRaTp6zV71Ba19_A0Tg-136" value="" style="rounded=1;whiteSpace=wrap;html=1;labelBackgroundColor=#ffffff;fillColor=#ffffff;gradientColor=#ffffff;fontSize=20;fontColor=#000000;" parent="1" vertex="1">
          <mxGeometry x="602" y="1240" width="998.75" height="500" as="geometry" />
        </mxCell>
        <mxCell id="FnRaTp6zV71Ba19_A0Tg-140" value="CONFIGURACÃO LÓGICA DE HA + IPS" style="text;html=1;strokeColor=none;fillColor=none;align=center;verticalAlign=middle;whiteSpace=wrap;rounded=0;fontStyle=1;fontSize=18;labelBackgroundColor=#FFFFFF;fontColor=#000000;" parent="1" vertex="1">
          <mxGeometry x="965.1700000000001" y="1200.75" width="375.07" height="20" as="geometry" />
        </mxCell>
        <mxCell id="FnRaTp6zV71Ba19_A0Tg-86" value="" style="rounded=1;whiteSpace=wrap;html=1;fontStyle=1;labelBackgroundColor=#FFFFFF;fontColor=#000000;" parent="1" vertex="1">
          <mxGeometry x="908.3900000000001" y="1564.25" width="399.93" height="120" as="geometry" />
        </mxCell>
        <mxCell id="FnRaTp6zV71Ba19_A0Tg-78" value="" style="rounded=1;whiteSpace=wrap;html=1;fontStyle=1;labelBackgroundColor=#FFFFFF;fontColor=#000000;" parent="1" vertex="1">
          <mxGeometry x="908.3900000000001" y="1259" width="395" height="120" as="geometry" />
        </mxCell>
        <mxCell id="FnRaTp6zV71Ba19_A0Tg-77" value="" style="rounded=1;whiteSpace=wrap;html=1;labelBackgroundColor=#ffffff;fillColor=#ffffff;gradientColor=#ffffff;fontSize=20;fontColor=#000000;" parent="1" vertex="1">
          <mxGeometry x="52" y="1190.75" width="514" height="130" as="geometry" />
        </mxCell>
        <mxCell id="FnRaTp6zV71Ba19_A0Tg-76" value="" style="rounded=1;whiteSpace=wrap;html=1;labelBackgroundColor=#ffffff;fillColor=#ffffff;gradientColor=#ffffff;fontSize=20;fontColor=#000000;" parent="1" vertex="1">
          <mxGeometry x="51.04" y="1240" width="513.79" height="490" as="geometry" />
        </mxCell>
        <mxCell id="FnRaTp6zV71Ba19_A0Tg-9" value="" style="rounded=1;whiteSpace=wrap;html=1;fontStyle=1;labelBackgroundColor=#FFFFFF;fontColor=#000000;" parent="1" vertex="1">
          <mxGeometry x="323.65" y="777.89" width="1380" height="258.11" as="geometry" />
        </mxCell>
        <mxCell id="FnRaTp6zV71Ba19_A0Tg-1" value="&lt;font style=&quot;font-size: 20px;&quot;&gt;1&lt;/font&gt;" style="pointerEvents=1;shadow=0;dashed=0;html=1;strokeColor=#A20025;fillColor=#a20025;aspect=fixed;labelPosition=center;verticalLabelPosition=bottom;verticalAlign=top;align=center;outlineConnect=0;shape=mxgraph.vvd.ethernet_port;fontColor=#000000;fontStyle=1;labelBackgroundColor=#ffffff;fontSize=20;" parent="1" vertex="1">
          <mxGeometry x="2799.98" y="774" width="50" height="50" as="geometry" />
        </mxCell>
        <mxCell id="FnRaTp6zV71Ba19_A0Tg-10" value="SWITCH-01 (LAN)" style="text;html=1;strokeColor=none;fillColor=none;align=center;verticalAlign=middle;whiteSpace=wrap;rounded=0;fontStyle=1;fontSize=29;labelBackgroundColor=#FFFFFF;fontColor=#000000;" parent="1" vertex="1">
          <mxGeometry x="777.9599999999999" y="774" width="453.64" height="55" as="geometry" />
        </mxCell>
        <mxCell id="FnRaTp6zV71Ba19_A0Tg-66" style="edgeStyle=orthogonalEdgeStyle;orthogonalLoop=1;jettySize=auto;html=1;endArrow=none;endFill=0;strokeWidth=6;fontSize=18;fillColor=#0050ef;strokeColor=#001DBC;fontStyle=1;labelBackgroundColor=#FFFFFF;fontColor=#000000;rounded=0;" parent="1" edge="1">
          <mxGeometry relative="1" as="geometry">
            <mxPoint x="123.65" y="1455.25" as="sourcePoint" />
            <mxPoint x="167.22" y="1455.25" as="targetPoint" />
            <Array as="points">
              <mxPoint x="173.65" y="1455.25" />
              <mxPoint x="173.65" y="1455.25" />
            </Array>
          </mxGeometry>
        </mxCell>
        <mxCell id="FnRaTp6zV71Ba19_A0Tg-70" value="" style="pointerEvents=1;shadow=0;dashed=0;html=1;strokeColor=#A20025;fillColor=#a20025;aspect=fixed;labelPosition=center;verticalLabelPosition=bottom;verticalAlign=top;align=center;outlineConnect=0;shape=mxgraph.vvd.ethernet_port;fontColor=#000000;fontStyle=1;labelBackgroundColor=#ffffff;fontSize=20;" parent="1" vertex="1">
          <mxGeometry x="123.65" y="1305.25" width="50" height="50" as="geometry" />
        </mxCell>
        <mxCell id="FnRaTp6zV71Ba19_A0Tg-71" value="" style="pointerEvents=1;shadow=0;dashed=0;html=1;strokeColor=#008A00;fillColor=#008a00;aspect=fixed;labelPosition=center;verticalLabelPosition=bottom;verticalAlign=top;align=center;outlineConnect=0;shape=mxgraph.vvd.ethernet_port;fontColor=#000000;fontStyle=1;fontSize=20;labelBackgroundColor=#FFFFFF;" parent="1" vertex="1">
          <mxGeometry x="123.65" y="1375.25" width="50" height="50" as="geometry" />
        </mxCell>
        <mxCell id="FnRaTp6zV71Ba19_A0Tg-72" value="LEGENDA" style="text;html=1;strokeColor=none;fillColor=none;align=center;verticalAlign=middle;whiteSpace=wrap;rounded=0;fontStyle=1;fontSize=18;labelBackgroundColor=#FFFFFF;fontColor=#000000;" parent="1" vertex="1">
          <mxGeometry x="314.04" y="1202.75" width="140" height="20" as="geometry" />
        </mxCell>
        <mxCell id="FnRaTp6zV71Ba19_A0Tg-73" value="PORTA EM USO" style="text;html=1;strokeColor=none;fillColor=none;align=center;verticalAlign=middle;whiteSpace=wrap;rounded=0;fontStyle=1;fontSize=18;labelBackgroundColor=#FFFFFF;fontColor=#000000;" parent="1" vertex="1">
          <mxGeometry x="194.65" y="1320.25" width="143" height="20" as="geometry" />
        </mxCell>
        <mxCell id="FnRaTp6zV71Ba19_A0Tg-74" value="PORTA LIVRE" style="text;html=1;strokeColor=none;fillColor=none;align=center;verticalAlign=middle;whiteSpace=wrap;rounded=0;fontStyle=1;fontSize=18;labelBackgroundColor=#FFFFFF;fontColor=#000000;" parent="1" vertex="1">
          <mxGeometry x="190.65" y="1385.25" width="133" height="20" as="geometry" />
        </mxCell>
        <mxCell id="FnRaTp6zV71Ba19_A0Tg-75" value="CABO UTP CAT 5e" style="text;html=1;strokeColor=none;fillColor=none;align=center;verticalAlign=middle;whiteSpace=wrap;rounded=0;fontStyle=1;fontSize=18;labelBackgroundColor=#FFFFFF;fontColor=#000000;" parent="1" vertex="1">
          <mxGeometry x="185.65" y="1444.25" width="173" height="20" as="geometry" />
        </mxCell>
        <mxCell id="FnRaTp6zV71Ba19_A0Tg-110" style="orthogonalLoop=1;jettySize=auto;html=1;labelBackgroundColor=#FFFFFF;endArrow=classic;endFill=1;strokeWidth=5;fontSize=17;fontColor=#000000;rounded=1;edgeStyle=orthogonalEdgeStyle;entryX=0.455;entryY=-0.298;entryDx=0;entryDy=0;entryPerimeter=0;" parent="1" source="FnRaTp6zV71Ba19_A0Tg-80" target="FnRaTp6zV71Ba19_A0Tg-105" edge="1">
          <mxGeometry relative="1" as="geometry">
            <mxPoint x="722" y="1264.75" as="targetPoint" />
            <Array as="points">
              <mxPoint x="1108" y="1254.75" />
              <mxPoint x="738" y="1254.75" />
            </Array>
          </mxGeometry>
        </mxCell>
        <mxCell id="FnRaTp6zV71Ba19_A0Tg-119" style="edgeStyle=orthogonalEdgeStyle;orthogonalLoop=1;jettySize=auto;html=1;labelBackgroundColor=#FFFFFF;endArrow=classic;endFill=1;strokeWidth=5;fontSize=17;fontColor=#000000;rounded=1;entryX=0.75;entryY=0;entryDx=0;entryDy=0;" parent="1" source="FnRaTp6zV71Ba19_A0Tg-79" target="FnRaTp6zV71Ba19_A0Tg-117" edge="1">
          <mxGeometry relative="1" as="geometry">
            <mxPoint x="872" y="1254.75" as="targetPoint" />
            <Array as="points">
              <mxPoint x="882" y="1318.75" />
              <mxPoint x="882" y="1374.75" />
              <mxPoint x="801" y="1374.75" />
            </Array>
          </mxGeometry>
        </mxCell>
        <mxCell id="FnRaTp6zV71Ba19_A0Tg-128" style="orthogonalLoop=1;jettySize=auto;html=1;labelBackgroundColor=#FFFFFF;endArrow=classic;endFill=1;strokeWidth=5;fontSize=17;fontColor=#000000;startArrow=none;startFill=0;rounded=1;" parent="1" source="H_Lgx6PLF9Htsv63IMZn-19" target="FnRaTp6zV71Ba19_A0Tg-100" edge="1">
          <mxGeometry relative="1" as="geometry">
            <mxPoint x="1278.3900000000003" y="1319.1130684516406" as="sourcePoint" />
          </mxGeometry>
        </mxCell>
        <mxCell id="FnRaTp6zV71Ba19_A0Tg-158" style="rounded=0;orthogonalLoop=1;jettySize=auto;html=1;dashed=1;dashPattern=1 1;labelBackgroundColor=#FFFFFF;startArrow=none;startFill=0;endArrow=none;endFill=0;strokeColor=#6600CC;strokeWidth=6;fontSize=17;fontColor=#000000;fillColor=#f8cecc;edgeStyle=orthogonalEdgeStyle;" parent="1" source="H_Lgx6PLF9Htsv63IMZn-19" target="FnRaTp6zV71Ba19_A0Tg-92" edge="1">
          <mxGeometry relative="1" as="geometry">
            <mxPoint x="1258.4666666666667" y="1344" as="sourcePoint" />
            <mxPoint x="1258.4666666666667" y="1599.25" as="targetPoint" />
            <Array as="points">
              <mxPoint x="1219" y="1354.75" />
              <mxPoint x="1212" y="1354.75" />
              <mxPoint x="1212" y="1598.75" />
            </Array>
          </mxGeometry>
        </mxCell>
        <mxCell id="FnRaTp6zV71Ba19_A0Tg-85" value="PFSENSE-MASTER" style="text;html=1;strokeColor=none;fillColor=none;align=center;verticalAlign=middle;whiteSpace=wrap;rounded=0;fontStyle=1;fontSize=18;labelBackgroundColor=#FFFFFF;fontColor=#000000;" parent="1" vertex="1">
          <mxGeometry x="1022" y="1264.75" width="173.57" height="20" as="geometry" />
        </mxCell>
        <mxCell id="FnRaTp6zV71Ba19_A0Tg-111" style="orthogonalLoop=1;jettySize=auto;html=1;labelBackgroundColor=#FFFFFF;endArrow=classic;endFill=1;strokeWidth=5;fontSize=17;fontColor=#000000;rounded=1;edgeStyle=orthogonalEdgeStyle;entryX=0.5;entryY=1;entryDx=0;entryDy=0;" parent="1" source="FnRaTp6zV71Ba19_A0Tg-88" target="FnRaTp6zV71Ba19_A0Tg-108" edge="1">
          <mxGeometry relative="1" as="geometry">
            <mxPoint x="752" y="1674.75" as="targetPoint" />
            <Array as="points">
              <mxPoint x="1109" y="1714.75" />
              <mxPoint x="749" y="1714.75" />
            </Array>
          </mxGeometry>
        </mxCell>
        <mxCell id="FnRaTp6zV71Ba19_A0Tg-88" value="WAN2" style="pointerEvents=1;shadow=0;dashed=0;html=1;strokeColor=#A20025;fillColor=#A20025;aspect=fixed;labelPosition=center;verticalLabelPosition=bottom;verticalAlign=top;align=center;outlineConnect=0;shape=mxgraph.vvd.ethernet_port;fontStyle=1;fontColor=#000000;fontSize=20;labelBackgroundColor=#FFFFFF;" parent="1" vertex="1">
          <mxGeometry x="1083.78" y="1599.75" width="50" height="50" as="geometry" />
        </mxCell>
        <mxCell id="FnRaTp6zV71Ba19_A0Tg-120" style="edgeStyle=orthogonalEdgeStyle;orthogonalLoop=1;jettySize=auto;html=1;labelBackgroundColor=#FFFFFF;endArrow=classic;endFill=1;strokeWidth=5;fontSize=17;fontColor=#000000;rounded=1;entryX=0.75;entryY=1;entryDx=0;entryDy=0;" parent="1" source="FnRaTp6zV71Ba19_A0Tg-87" target="FnRaTp6zV71Ba19_A0Tg-118" edge="1">
          <mxGeometry relative="1" as="geometry">
            <mxPoint x="1210.96" y="1599.25" as="sourcePoint" />
            <mxPoint x="1210.96" y="1534.25" as="targetPoint" />
            <Array as="points">
              <mxPoint x="882" y="1623.75" />
              <mxPoint x="882" y="1574.75" />
              <mxPoint x="798" y="1574.75" />
            </Array>
          </mxGeometry>
        </mxCell>
        <mxCell id="FnRaTp6zV71Ba19_A0Tg-103" style="orthogonalLoop=1;jettySize=auto;html=1;entryX=0;entryY=0.5;entryDx=0;entryDy=0;labelBackgroundColor=#FFFFFF;endArrow=classic;endFill=1;strokeWidth=5;fontSize=17;fontColor=#000000;rounded=1;" parent="1" source="FnRaTp6zV71Ba19_A0Tg-92" target="FnRaTp6zV71Ba19_A0Tg-101" edge="1">
          <mxGeometry relative="1" as="geometry" />
        </mxCell>
        <mxCell id="FnRaTp6zV71Ba19_A0Tg-92" value="LAN" style="pointerEvents=1;shadow=0;dashed=0;html=1;strokeColor=#A20025;fillColor=#a20025;aspect=fixed;labelPosition=center;verticalLabelPosition=bottom;verticalAlign=top;align=center;outlineConnect=0;shape=mxgraph.vvd.ethernet_port;fontStyle=1;fontColor=#000000;fontSize=20;labelBackgroundColor=#FFFFFF;" parent="1" vertex="1">
          <mxGeometry x="1195.5700000000002" y="1599.25" width="50" height="50" as="geometry" />
        </mxCell>
        <mxCell id="FnRaTp6zV71Ba19_A0Tg-93" value="PFSENSE-BACKUP" style="text;html=1;strokeColor=none;fillColor=none;align=center;verticalAlign=middle;whiteSpace=wrap;rounded=0;fontStyle=1;fontSize=18;labelBackgroundColor=#FFFFFF;fontColor=#000000;" parent="1" vertex="1">
          <mxGeometry x="1021.9999999999998" y="1571.75" width="183" height="20" as="geometry" />
        </mxCell>
        <mxCell id="FnRaTp6zV71Ba19_A0Tg-100" value="HASYNC - 192.168.1.10" style="text;html=1;strokeColor=none;fillColor=none;align=center;verticalAlign=middle;whiteSpace=wrap;rounded=0;labelBackgroundColor=#ffffff;fontSize=20;fontColor=#000000;fontStyle=1" parent="1" vertex="1">
          <mxGeometry x="1346.96" y="1310" width="255.07" height="20" as="geometry" />
        </mxCell>
        <mxCell id="FnRaTp6zV71Ba19_A0Tg-101" value="HASYNC - 192.168.1.20" style="text;html=1;strokeColor=none;fillColor=none;align=center;verticalAlign=middle;whiteSpace=wrap;rounded=0;labelBackgroundColor=#ffffff;fontSize=20;fontColor=#000000;fontStyle=1" parent="1" vertex="1">
          <mxGeometry x="1354.46" y="1614.25" width="240.07" height="20" as="geometry" />
        </mxCell>
        <mxCell id="FnRaTp6zV71Ba19_A0Tg-130" style="rounded=1;orthogonalLoop=1;jettySize=auto;html=1;labelBackgroundColor=#FFFFFF;startArrow=none;startFill=0;endArrow=classic;endFill=1;strokeWidth=5;fontSize=17;fontColor=#000000;strokeColor=#2D7600;entryX=0;entryY=0.25;entryDx=0;entryDy=0;edgeStyle=orthogonalEdgeStyle;" parent="1" source="H_Lgx6PLF9Htsv63IMZn-19" target="FnRaTp6zV71Ba19_A0Tg-129" edge="1">
          <mxGeometry relative="1" as="geometry">
            <Array as="points">
              <mxPoint x="1219" y="1384.75" />
              <mxPoint x="1262" y="1384.75" />
              <mxPoint x="1262" y="1456.75" />
            </Array>
            <mxPoint x="1015" y="1344" as="sourcePoint" />
            <mxPoint x="1082.5100000000002" y="1435.25" as="targetPoint" />
          </mxGeometry>
        </mxCell>
        <mxCell id="FnRaTp6zV71Ba19_A0Tg-105" value="WAN2 - 179.191.105.114" style="text;html=1;strokeColor=none;fillColor=none;align=center;verticalAlign=middle;whiteSpace=wrap;rounded=0;labelBackgroundColor=#ffffff;fontSize=20;fontColor=#000000;fontStyle=1" parent="1" vertex="1">
          <mxGeometry x="625.76" y="1335.25" width="246.24" height="20" as="geometry" />
        </mxCell>
        <mxCell id="FnRaTp6zV71Ba19_A0Tg-131" style="rounded=1;orthogonalLoop=1;jettySize=auto;html=1;entryX=0;entryY=0.75;entryDx=0;entryDy=0;labelBackgroundColor=#FFFFFF;startArrow=none;startFill=0;endArrow=classic;endFill=1;strokeWidth=5;fontSize=17;fontColor=#000000;strokeColor=#B20000;dashed=1;dashPattern=1 1;edgeStyle=orthogonalEdgeStyle;" parent="1" source="FnRaTp6zV71Ba19_A0Tg-92" target="FnRaTp6zV71Ba19_A0Tg-129" edge="1">
          <mxGeometry relative="1" as="geometry">
            <Array as="points">
              <mxPoint x="1221" y="1584.75" />
              <mxPoint x="1252" y="1584.75" />
              <mxPoint x="1252" y="1481.75" />
            </Array>
          </mxGeometry>
        </mxCell>
        <mxCell id="FnRaTp6zV71Ba19_A0Tg-108" value="WAN2 - 179.191.105.114" style="text;html=1;strokeColor=none;fillColor=none;align=center;verticalAlign=middle;whiteSpace=wrap;rounded=0;labelBackgroundColor=#ffffff;fontSize=20;fontColor=#000000;fontStyle=1" parent="1" vertex="1">
          <mxGeometry x="628.88" y="1579.25" width="240" height="20" as="geometry" />
        </mxCell>
        <mxCell id="FnRaTp6zV71Ba19_A0Tg-117" value="WAN1 - 179.191.75.58" style="text;html=1;strokeColor=none;fillColor=none;align=center;verticalAlign=middle;whiteSpace=wrap;rounded=0;labelBackgroundColor=#ffffff;fontSize=20;fontColor=#000000;fontStyle=1" parent="1" vertex="1">
          <mxGeometry x="605.73" y="1404.75" width="259.96" height="20" as="geometry" />
        </mxCell>
        <mxCell id="FnRaTp6zV71Ba19_A0Tg-118" value="WAN1 - 179.191.75.58" style="text;html=1;strokeColor=none;fillColor=none;align=center;verticalAlign=middle;whiteSpace=wrap;rounded=0;labelBackgroundColor=#ffffff;fontSize=20;fontColor=#000000;fontStyle=1" parent="1" vertex="1">
          <mxGeometry x="612" y="1521.25" width="247.43" height="20" as="geometry" />
        </mxCell>
        <mxCell id="FnRaTp6zV71Ba19_A0Tg-129" value="VIP CARP LAN&lt;br&gt;192.168.1.1/24" style="text;html=1;strokeColor=none;fillColor=none;align=center;verticalAlign=middle;whiteSpace=wrap;rounded=0;labelBackgroundColor=#ffffff;fontSize=20;fontColor=#CC0000;fontStyle=1" parent="1" vertex="1">
          <mxGeometry x="1313.5" y="1444.25" width="157.07" height="50" as="geometry" />
        </mxCell>
        <mxCell id="FnRaTp6zV71Ba19_A0Tg-147" style="edgeStyle=orthogonalEdgeStyle;orthogonalLoop=1;jettySize=auto;html=1;endArrow=none;endFill=0;strokeWidth=6;fontSize=18;fillColor=#0050ef;strokeColor=#000000;fontStyle=1;labelBackgroundColor=#FFFFFF;fontColor=#000000;rounded=0;" parent="1" edge="1">
          <mxGeometry relative="1" as="geometry">
            <mxPoint x="122.12000000000023" y="1513.71" as="sourcePoint" />
            <mxPoint x="165.68999999999994" y="1513.71" as="targetPoint" />
            <Array as="points">
              <mxPoint x="172.12" y="1513.71" />
              <mxPoint x="172.12" y="1513.71" />
            </Array>
          </mxGeometry>
        </mxCell>
        <mxCell id="FnRaTp6zV71Ba19_A0Tg-148" value="IP CONFIGURADO NA INTERFACE" style="text;html=1;strokeColor=none;fillColor=none;align=center;verticalAlign=middle;whiteSpace=wrap;rounded=0;fontStyle=1;fontSize=18;labelBackgroundColor=#FFFFFF;fontColor=#000000;" parent="1" vertex="1">
          <mxGeometry x="188.15" y="1501.25" width="307" height="20" as="geometry" />
        </mxCell>
        <mxCell id="FnRaTp6zV71Ba19_A0Tg-149" style="edgeStyle=orthogonalEdgeStyle;orthogonalLoop=1;jettySize=auto;html=1;endArrow=none;endFill=0;strokeWidth=6;fontSize=18;fillColor=#0050ef;strokeColor=#2D7600;fontStyle=1;labelBackgroundColor=#FFFFFF;fontColor=#000000;rounded=0;" parent="1" edge="1">
          <mxGeometry relative="1" as="geometry">
            <mxPoint x="123.65000000000003" y="1569.75" as="sourcePoint" />
            <mxPoint x="167.21999999999974" y="1569.75" as="targetPoint" />
            <Array as="points">
              <mxPoint x="173.65" y="1569.75" />
              <mxPoint x="173.65" y="1569.75" />
            </Array>
          </mxGeometry>
        </mxCell>
        <mxCell id="FnRaTp6zV71Ba19_A0Tg-150" style="edgeStyle=orthogonalEdgeStyle;orthogonalLoop=1;jettySize=auto;html=1;endArrow=none;endFill=0;strokeWidth=6;fontSize=18;fillColor=#0050ef;strokeColor=#B20000;fontStyle=1;labelBackgroundColor=#FFFFFF;fontColor=#000000;rounded=0;dashed=1;dashPattern=1 1;" parent="1" edge="1">
          <mxGeometry relative="1" as="geometry">
            <mxPoint x="123.64999999999972" y="1625.75" as="sourcePoint" />
            <mxPoint x="167.21999999999943" y="1625.75" as="targetPoint" />
            <Array as="points">
              <mxPoint x="173.65" y="1625.75" />
              <mxPoint x="173.65" y="1625.75" />
            </Array>
          </mxGeometry>
        </mxCell>
        <mxCell id="FnRaTp6zV71Ba19_A0Tg-151" value="IP CARP MASTER - (ATIVO)" style="text;html=1;strokeColor=none;fillColor=none;align=center;verticalAlign=middle;whiteSpace=wrap;rounded=0;fontStyle=1;fontSize=18;labelBackgroundColor=#FFFFFF;fontColor=#000000;" parent="1" vertex="1">
          <mxGeometry x="185.65" y="1559.75" width="244.57" height="20" as="geometry" />
        </mxCell>
        <mxCell id="FnRaTp6zV71Ba19_A0Tg-152" value="IP CARP BACKUP - (STANDBY)" style="text;html=1;strokeColor=none;fillColor=none;align=center;verticalAlign=middle;whiteSpace=wrap;rounded=0;fontStyle=1;fontSize=18;labelBackgroundColor=#FFFFFF;fontColor=#000000;" parent="1" vertex="1">
          <mxGeometry x="185.29" y="1614.75" width="273.5" height="20" as="geometry" />
        </mxCell>
        <mxCell id="FnRaTp6zV71Ba19_A0Tg-156" value="CONFIGURAÇÃO FíSICA - INTERFACES DE REDE - FIREWALLS E SWITCHES" style="text;html=1;strokeColor=none;fillColor=none;align=center;verticalAlign=middle;whiteSpace=wrap;rounded=0;fontStyle=1;fontSize=18;labelBackgroundColor=#FFFFFF;fontColor=#000000;" parent="1" vertex="1">
          <mxGeometry x="830" y="65" width="701.42" height="20" as="geometry" />
        </mxCell>
        <mxCell id="FnRaTp6zV71Ba19_A0Tg-159" style="edgeStyle=orthogonalEdgeStyle;orthogonalLoop=1;jettySize=auto;html=1;endArrow=none;endFill=0;strokeWidth=6;fontSize=18;fillColor=#0050ef;strokeColor=#6600CC;fontStyle=1;labelBackgroundColor=#FFFFFF;fontColor=#000000;rounded=0;dashed=1;dashPattern=1 1;" parent="1" edge="1">
          <mxGeometry relative="1" as="geometry">
            <mxPoint x="123.64999999999964" y="1675.75" as="sourcePoint" />
            <mxPoint x="167.21999999999935" y="1675.75" as="targetPoint" />
            <Array as="points">
              <mxPoint x="173.65" y="1675.75" />
              <mxPoint x="173.65" y="1675.75" />
            </Array>
          </mxGeometry>
        </mxCell>
        <mxCell id="FnRaTp6zV71Ba19_A0Tg-160" value="HASYNC - REPLICAÇÃO DE CONFIGS." style="text;html=1;strokeColor=none;fillColor=none;align=center;verticalAlign=middle;whiteSpace=wrap;rounded=0;fontStyle=1;fontSize=18;labelBackgroundColor=#FFFFFF;fontColor=#000000;" parent="1" vertex="1">
          <mxGeometry x="180.29" y="1664.75" width="341.71" height="20" as="geometry" />
        </mxCell>
        <mxCell id="FnRaTp6zV71Ba19_A0Tg-79" value="WAN1" style="pointerEvents=1;shadow=0;dashed=0;html=1;strokeColor=#A20025;fillColor=#a20025;aspect=fixed;labelPosition=center;verticalLabelPosition=bottom;verticalAlign=top;align=center;outlineConnect=0;shape=mxgraph.vvd.ethernet_port;fontColor=#000000;fontStyle=1;fontSize=20;labelBackgroundColor=#FFFFFF;" parent="1" vertex="1">
          <mxGeometry x="972.0000000000001" y="1294" width="50" height="50" as="geometry" />
        </mxCell>
        <mxCell id="FnRaTp6zV71Ba19_A0Tg-80" value="WAN2" style="pointerEvents=1;shadow=0;dashed=0;html=1;strokeColor=#A20025;fillColor=#A20025;aspect=fixed;labelPosition=center;verticalLabelPosition=bottom;verticalAlign=top;align=center;outlineConnect=0;shape=mxgraph.vvd.ethernet_port;fontStyle=1;fontColor=#000000;fontSize=20;labelBackgroundColor=#FFFFFF;" parent="1" vertex="1">
          <mxGeometry x="1083.3500000000001" y="1294" width="50" height="50" as="geometry" />
        </mxCell>
        <mxCell id="FnRaTp6zV71Ba19_A0Tg-87" value="WAN1" style="pointerEvents=1;shadow=0;dashed=0;html=1;strokeColor=#A20025;fillColor=#a20025;aspect=fixed;labelPosition=center;verticalLabelPosition=bottom;verticalAlign=top;align=center;outlineConnect=0;shape=mxgraph.vvd.ethernet_port;fontColor=#000000;fontStyle=1;fontSize=20;labelBackgroundColor=#FFFFFF;" parent="1" vertex="1">
          <mxGeometry x="971.9999999999999" y="1599.25" width="50" height="50" as="geometry" />
        </mxCell>
        <mxCell id="vzmAkZegJcYB33hXStO7-14" value="IGB0" style="pointerEvents=1;shadow=0;dashed=0;html=1;strokeColor=#A20025;fillColor=#a20025;aspect=fixed;labelPosition=center;verticalLabelPosition=bottom;verticalAlign=top;align=center;outlineConnect=0;shape=mxgraph.vvd.ethernet_port;fontColor=#000000;fontStyle=1;fontSize=12;labelBackgroundColor=#FFFFFF;" parent="1" vertex="1">
          <mxGeometry x="2739.56" y="802" width="20" height="20" as="geometry" />
        </mxCell>
        <mxCell id="vzmAkZegJcYB33hXStO7-16" value="&lt;p style=&quot;line-height: 0%; font-size: 12px;&quot;&gt;&lt;font style=&quot;font-size: 12px;&quot;&gt;IGB0&lt;/font&gt;&lt;/p&gt;" style="pointerEvents=1;shadow=0;dashed=0;html=1;strokeColor=#A20025;fillColor=#a20025;aspect=fixed;labelPosition=center;verticalLabelPosition=bottom;verticalAlign=top;align=center;outlineConnect=0;shape=mxgraph.vvd.ethernet_port;fontColor=#000000;fontStyle=1;fontSize=12;labelBackgroundColor=#FFFFFF;" parent="1" vertex="1">
          <mxGeometry x="2750" y="180" width="19" height="19" as="geometry" />
        </mxCell>
        <mxCell id="vzmAkZegJcYB33hXStO7-20" value="" style="group" parent="1" vertex="1" connectable="0">
          <mxGeometry x="2873.8199999999997" y="259" width="149.96000000000004" height="330" as="geometry" />
        </mxCell>
        <mxCell id="H_Lgx6PLF9Htsv63IMZn-10" value="IGB0" style="pointerEvents=1;shadow=0;dashed=0;html=1;strokeColor=#A20025;fillColor=#a20025;aspect=fixed;labelPosition=center;verticalLabelPosition=bottom;verticalAlign=top;align=center;outlineConnect=0;shape=mxgraph.vvd.ethernet_port;fontColor=#000000;fontStyle=1;fontSize=12;labelBackgroundColor=#FFFFFF;" parent="vzmAkZegJcYB33hXStO7-20" vertex="1">
          <mxGeometry x="20.940000000000072" y="205" width="20" height="20" as="geometry" />
        </mxCell>
        <mxCell id="H_Lgx6PLF9Htsv63IMZn-11" value="" style="rounded=1;whiteSpace=wrap;html=1;fontStyle=1;labelBackgroundColor=#FFFFFF;fontColor=#000000;" parent="vzmAkZegJcYB33hXStO7-20" vertex="1">
          <mxGeometry x="15.000000000000018" y="140" width="119.96" height="30" as="geometry" />
        </mxCell>
        <mxCell id="H_Lgx6PLF9Htsv63IMZn-12" value="&lt;p style=&quot;line-height: 0%; font-size: 12px;&quot;&gt;&lt;font style=&quot;font-size: 12px;&quot;&gt;IGB0&lt;/font&gt;&lt;/p&gt;" style="pointerEvents=1;shadow=0;dashed=0;html=1;strokeColor=#A20025;fillColor=#a20025;aspect=fixed;labelPosition=center;verticalLabelPosition=bottom;verticalAlign=top;align=center;outlineConnect=0;shape=mxgraph.vvd.ethernet_port;fontColor=#000000;fontStyle=1;fontSize=12;labelBackgroundColor=#FFFFFF;" parent="vzmAkZegJcYB33hXStO7-20" vertex="1">
          <mxGeometry x="21.440000000000072" y="145.5" width="19" height="19" as="geometry" />
        </mxCell>
        <mxCell id="vzmAkZegJcYB33hXStO7-32" style="edgeStyle=orthogonalEdgeStyle;orthogonalLoop=1;jettySize=auto;html=1;endArrow=none;endFill=0;strokeWidth=6;fontSize=18;fillColor=#0050ef;strokeColor=#001DBC;fontStyle=1;labelBackgroundColor=#FFFFFF;fontColor=#000000;rounded=1;" parent="1" source="vzmAkZegJcYB33hXStO7-30" edge="1">
          <mxGeometry relative="1" as="geometry">
            <Array as="points">
              <mxPoint x="2780" y="519" />
              <mxPoint x="2780" y="484" />
              <mxPoint x="2900" y="484" />
            </Array>
            <mxPoint x="2327.5209090909084" y="539" as="sourcePoint" />
            <mxPoint x="2900" y="699" as="targetPoint" />
          </mxGeometry>
        </mxCell>
        <mxCell id="H_Lgx6PLF9Htsv63IMZn-2" value="&lt;p style=&quot;line-height: 0%; font-size: 12px;&quot;&gt;&lt;font style=&quot;font-size: 12px;&quot;&gt;IGB0&lt;/font&gt;&lt;/p&gt;" style="pointerEvents=1;shadow=0;dashed=0;html=1;strokeColor=#A20025;fillColor=#a20025;aspect=fixed;labelPosition=center;verticalLabelPosition=bottom;verticalAlign=top;align=center;outlineConnect=0;shape=mxgraph.vvd.ethernet_port;fontColor=#000000;fontStyle=1;fontSize=12;labelBackgroundColor=#FFFFFF;" parent="1" vertex="1">
          <mxGeometry x="2759.56" y="852" width="19" height="19" as="geometry" />
        </mxCell>
        <mxCell id="H_Lgx6PLF9Htsv63IMZn-17" style="edgeStyle=orthogonalEdgeStyle;orthogonalLoop=1;jettySize=auto;html=1;endArrow=none;endFill=0;strokeWidth=6;fontSize=18;fillColor=#0050ef;strokeColor=#001DBC;fontStyle=1;labelBackgroundColor=#FFFFFF;fontColor=#000000;rounded=1;" parent="1" source="vzmAkZegJcYB33hXStO7-31" target="H_Lgx6PLF9Htsv63IMZn-10" edge="1">
          <mxGeometry relative="1" as="geometry">
            <Array as="points">
              <mxPoint x="3050" y="514" />
              <mxPoint x="3050" y="484" />
            </Array>
            <mxPoint x="2400" y="409" as="sourcePoint" />
            <mxPoint x="2074" y="485" as="targetPoint" />
          </mxGeometry>
        </mxCell>
        <mxCell id="H_Lgx6PLF9Htsv63IMZn-19" value="LAN" style="pointerEvents=1;shadow=0;dashed=0;html=1;strokeColor=#A20025;fillColor=#A20025;aspect=fixed;labelPosition=center;verticalLabelPosition=bottom;verticalAlign=top;align=center;outlineConnect=0;shape=mxgraph.vvd.ethernet_port;fontStyle=1;fontColor=#000000;fontSize=20;labelBackgroundColor=#FFFFFF;" parent="1" vertex="1">
          <mxGeometry x="1194.2" y="1295" width="50" height="50" as="geometry" />
        </mxCell>
        <mxCell id="H_Lgx6PLF9Htsv63IMZn-14" value="&lt;p style=&quot;line-height: 0%; font-size: 12px;&quot;&gt;&lt;font style=&quot;font-size: 12px;&quot;&gt;IGB0&lt;/font&gt;&lt;/p&gt;" style="pointerEvents=1;shadow=0;dashed=0;html=1;strokeColor=#A20025;fillColor=#a20025;aspect=fixed;labelPosition=center;verticalLabelPosition=bottom;verticalAlign=top;align=center;outlineConnect=0;shape=mxgraph.vvd.ethernet_port;fontColor=#000000;fontStyle=1;fontSize=12;labelBackgroundColor=#FFFFFF;" parent="1" vertex="1">
          <mxGeometry x="2895.26" y="534.5" width="19" height="19" as="geometry" />
        </mxCell>
        <mxCell id="H_Lgx6PLF9Htsv63IMZn-9" value="" style="rounded=1;whiteSpace=wrap;html=1;fontStyle=1;labelBackgroundColor=#FFFFFF;fontColor=#000000;" parent="1" vertex="1">
          <mxGeometry x="2888.8199999999997" y="469" width="119.96" height="30" as="geometry" />
        </mxCell>
        <mxCell id="vzmAkZegJcYB33hXStO7-33" style="edgeStyle=orthogonalEdgeStyle;orthogonalLoop=1;jettySize=auto;html=1;endArrow=none;endFill=0;strokeWidth=6;fontSize=18;fillColor=#0050ef;strokeColor=#001DBC;fontStyle=1;labelBackgroundColor=#FFFFFF;fontColor=#000000;rounded=1;" parent="1" source="FnRaTp6zV71Ba19_A0Tg-52" edge="1">
          <mxGeometry relative="1" as="geometry">
            <Array as="points">
              <mxPoint x="3245" y="339" />
              <mxPoint x="3080" y="339" />
              <mxPoint x="3080" y="424" />
            </Array>
            <mxPoint x="3067.4700000000003" y="539" as="sourcePoint" />
            <mxPoint x="2914.26" y="424" as="targetPoint" />
          </mxGeometry>
        </mxCell>
        <mxCell id="H_Lgx6PLF9Htsv63IMZn-13" value="" style="rounded=1;whiteSpace=wrap;html=1;fontStyle=1;labelBackgroundColor=#FFFFFF;fontColor=#000000;" parent="1" vertex="1">
          <mxGeometry x="2888.82" y="529" width="119.96" height="30" as="geometry" />
        </mxCell>
        <mxCell id="vzmAkZegJcYB33hXStO7-31" value="2" style="pointerEvents=1;shadow=0;dashed=0;html=1;strokeColor=#A20025;fillColor=#a20025;aspect=fixed;labelPosition=center;verticalLabelPosition=bottom;verticalAlign=top;align=center;outlineConnect=0;shape=mxgraph.vvd.ethernet_port;fontColor=#000000;fontStyle=1;fontSize=20;labelBackgroundColor=#FFFFFF;" parent="1" vertex="1">
          <mxGeometry x="3220.04" y="489" width="50" height="50" as="geometry" />
        </mxCell>
        <mxCell id="vzmAkZegJcYB33hXStO7-30" value="1" style="pointerEvents=1;shadow=0;dashed=0;html=1;strokeColor=#A20025;fillColor=#a20025;aspect=fixed;labelPosition=center;verticalLabelPosition=bottom;verticalAlign=top;align=center;outlineConnect=0;shape=mxgraph.vvd.ethernet_port;fontColor=#000000;fontStyle=1;fontSize=20;labelBackgroundColor=#FFFFFF;" parent="1" vertex="1">
          <mxGeometry x="3160.04" y="489" width="50" height="50" as="geometry" />
        </mxCell>
        <mxCell id="vzmAkZegJcYB33hXStO7-28" value="5" style="pointerEvents=1;shadow=0;dashed=0;html=1;strokeColor=#008A00;fillColor=#008a00;aspect=fixed;labelPosition=center;verticalLabelPosition=bottom;verticalAlign=top;align=center;outlineConnect=0;shape=mxgraph.vvd.ethernet_port;fontColor=#000000;fontStyle=1;fontSize=20;labelBackgroundColor=#FFFFFF;" parent="1" vertex="1">
          <mxGeometry x="3400.04" y="489" width="50" height="50" as="geometry" />
        </mxCell>
        <mxCell id="vzmAkZegJcYB33hXStO7-27" value="4" style="pointerEvents=1;shadow=0;dashed=0;html=1;strokeColor=#008A00;fillColor=#008a00;aspect=fixed;labelPosition=center;verticalLabelPosition=bottom;verticalAlign=top;align=center;outlineConnect=0;shape=mxgraph.vvd.ethernet_port;fontStyle=1;fontColor=#000000;fontSize=20;labelBackgroundColor=#FFFFFF;" parent="1" vertex="1">
          <mxGeometry x="3340.04" y="489" width="50" height="50" as="geometry" />
        </mxCell>
        <mxCell id="vzmAkZegJcYB33hXStO7-26" value="3" style="pointerEvents=1;shadow=0;dashed=0;html=1;strokeColor=#008A00;fillColor=#008a00;aspect=fixed;labelPosition=center;verticalLabelPosition=bottom;verticalAlign=top;align=center;outlineConnect=0;shape=mxgraph.vvd.ethernet_port;fontStyle=1;fontColor=#000000;fontSize=20;labelBackgroundColor=#FFFFFF;" parent="1" vertex="1">
          <mxGeometry x="3280.04" y="489" width="50" height="50" as="geometry" />
        </mxCell>
        <mxCell id="vzmAkZegJcYB33hXStO7-25" value="" style="rounded=1;whiteSpace=wrap;html=1;fontStyle=1;labelBackgroundColor=#FFFFFF;fontColor=#000000;" parent="1" vertex="1">
          <mxGeometry x="3130.04" y="454" width="340" height="120" as="geometry" />
        </mxCell>
        <mxCell id="FnRaTp6zV71Ba19_A0Tg-54" value="4" style="pointerEvents=1;shadow=0;dashed=0;html=1;strokeColor=#008A00;fillColor=#008a00;aspect=fixed;labelPosition=center;verticalLabelPosition=bottom;verticalAlign=top;align=center;outlineConnect=0;shape=mxgraph.vvd.ethernet_port;fontStyle=1;fontColor=#000000;fontSize=20;labelBackgroundColor=#FFFFFF;" parent="1" vertex="1">
          <mxGeometry x="3340.04" y="349" width="50" height="50" as="geometry" />
        </mxCell>
        <mxCell id="FnRaTp6zV71Ba19_A0Tg-55" value="5" style="pointerEvents=1;shadow=0;dashed=0;html=1;strokeColor=#008A00;fillColor=#008a00;aspect=fixed;labelPosition=center;verticalLabelPosition=bottom;verticalAlign=top;align=center;outlineConnect=0;shape=mxgraph.vvd.ethernet_port;fontColor=#000000;fontStyle=1;fontSize=20;labelBackgroundColor=#FFFFFF;" parent="1" vertex="1">
          <mxGeometry x="3400.04" y="349" width="50" height="50" as="geometry" />
        </mxCell>
        <mxCell id="FnRaTp6zV71Ba19_A0Tg-53" value="3" style="pointerEvents=1;shadow=0;dashed=0;html=1;strokeColor=#008A00;fillColor=#008a00;aspect=fixed;labelPosition=center;verticalLabelPosition=bottom;verticalAlign=top;align=center;outlineConnect=0;shape=mxgraph.vvd.ethernet_port;fontStyle=1;fontColor=#000000;fontSize=20;labelBackgroundColor=#FFFFFF;" parent="1" vertex="1">
          <mxGeometry x="3270" y="349" width="60.04" height="60.04" as="geometry" />
        </mxCell>
        <mxCell id="FnRaTp6zV71Ba19_A0Tg-51" value="1" style="pointerEvents=1;shadow=0;dashed=0;html=1;strokeColor=#A20025;fillColor=#a20025;aspect=fixed;labelPosition=center;verticalLabelPosition=bottom;verticalAlign=top;align=center;outlineConnect=0;shape=mxgraph.vvd.ethernet_port;fontColor=#000000;fontStyle=1;fontSize=20;labelBackgroundColor=#FFFFFF;" parent="1" vertex="1">
          <mxGeometry x="3160.04" y="349" width="50" height="50" as="geometry" />
        </mxCell>
        <mxCell id="FnRaTp6zV71Ba19_A0Tg-52" value="2" style="pointerEvents=1;shadow=0;dashed=0;html=1;strokeColor=#A20025;fillColor=#a20025;aspect=fixed;labelPosition=center;verticalLabelPosition=bottom;verticalAlign=top;align=center;outlineConnect=0;shape=mxgraph.vvd.ethernet_port;fontColor=#000000;fontStyle=1;fontSize=20;labelBackgroundColor=#FFFFFF;" parent="1" vertex="1">
          <mxGeometry x="3220.04" y="349" width="50" height="50" as="geometry" />
        </mxCell>
        <mxCell id="FnRaTp6zV71Ba19_A0Tg-59" value="SWITCH (WAN)" style="text;html=1;strokeColor=none;fillColor=none;align=center;verticalAlign=middle;whiteSpace=wrap;rounded=0;fontStyle=1;fontSize=18;labelBackgroundColor=#FFFFFF;fontColor=#000000;" parent="1" vertex="1">
          <mxGeometry x="3250.04" y="319" width="140" height="20" as="geometry" />
        </mxCell>
        <mxCell id="FnRaTp6zV71Ba19_A0Tg-50" value="" style="rounded=1;whiteSpace=wrap;html=1;fontStyle=1;labelBackgroundColor=#FFFFFF;fontColor=#000000;" parent="1" vertex="1">
          <mxGeometry x="3130.04" y="314" width="340" height="120" as="geometry" />
        </mxCell>
        <mxCell id="vzmAkZegJcYB33hXStO7-29" value="SWITCH (WAN2)" style="text;html=1;strokeColor=none;fillColor=none;align=center;verticalAlign=middle;whiteSpace=wrap;rounded=0;fontStyle=1;fontSize=18;labelBackgroundColor=#FFFFFF;fontColor=#000000;" parent="1" vertex="1">
          <mxGeometry x="3236" y="461" width="154" height="20" as="geometry" />
        </mxCell>
        <mxCell id="FnRaTp6zV71Ba19_A0Tg-34" value="PFSENSE (BACKUP)" style="text;html=1;strokeColor=none;fillColor=none;align=center;verticalAlign=middle;whiteSpace=wrap;rounded=0;fontStyle=1;fontSize=18;labelBackgroundColor=#FFFFFF;fontColor=#000000;" parent="1" vertex="1">
          <mxGeometry x="2883.8" y="294" width="130" height="20" as="geometry" />
        </mxCell>
        <mxCell id="vzmAkZegJcYB33hXStO7-17" value="PFSENSE (MASTER)" style="text;html=1;strokeColor=none;fillColor=none;align=center;verticalAlign=middle;whiteSpace=wrap;rounded=0;fontStyle=1;fontSize=18;labelBackgroundColor=#FFFFFF;fontColor=#000000;" parent="1" vertex="1">
          <mxGeometry x="2719.98" y="294" width="130" height="20" as="geometry" />
        </mxCell>
        <mxCell id="vzmAkZegJcYB33hXStO7-15" value="" style="rounded=1;whiteSpace=wrap;html=1;fontStyle=1;labelBackgroundColor=#FFFFFF;fontColor=#000000;" parent="1" vertex="1">
          <mxGeometry x="2727" y="409" width="119.96" height="30" as="geometry" />
        </mxCell>
        <mxCell id="vzmAkZegJcYB33hXStO7-21" style="edgeStyle=orthogonalEdgeStyle;orthogonalLoop=1;jettySize=auto;html=1;endArrow=none;endFill=0;strokeWidth=6;fontSize=18;fillColor=#0050ef;strokeColor=#001DBC;fontStyle=1;labelBackgroundColor=#FFFFFF;fontColor=#000000;rounded=1;" parent="1" source="FnRaTp6zV71Ba19_A0Tg-51" edge="1">
          <mxGeometry relative="1" as="geometry">
            <Array as="points">
              <mxPoint x="2870" y="374" />
              <mxPoint x="2870" y="424" />
            </Array>
            <mxPoint x="3152.4299999999994" y="349" as="sourcePoint" />
            <mxPoint x="2752.44" y="424" as="targetPoint" />
          </mxGeometry>
        </mxCell>
        <mxCell id="vzmAkZegJcYB33hXStO7-13" value="" style="rounded=1;whiteSpace=wrap;html=1;fontStyle=1;labelBackgroundColor=#FFFFFF;fontColor=#000000;" parent="1" vertex="1">
          <mxGeometry x="2727" y="469" width="119.96" height="30" as="geometry" />
        </mxCell>
        <mxCell id="H_Lgx6PLF9Htsv63IMZn-1" value="" style="rounded=1;whiteSpace=wrap;html=1;fontStyle=1;labelBackgroundColor=#FFFFFF;fontColor=#000000;" parent="1" vertex="1">
          <mxGeometry x="2727" y="529" width="119.96" height="30" as="geometry" />
        </mxCell>
        <mxCell id="vzmAkZegJcYB33hXStO7-12" value="" style="rounded=1;whiteSpace=wrap;html=1;fontStyle=1;labelBackgroundColor=#FFFFFF;fontColor=#000000;" parent="1" vertex="1">
          <mxGeometry x="2710" y="269" width="149.96" height="330" as="geometry" />
        </mxCell>
        <mxCell id="Kk4z2EG4zBWjRUP0n0v2-45" value="" style="image;html=1;image=img/lib/clip_art/networking/Router_128x128.png;imageAspect=1;" vertex="1" parent="1">
          <mxGeometry x="217.15" y="180" width="80" height="80" as="geometry" />
        </mxCell>
        <mxCell id="FnRaTp6zV71Ba19_A0Tg-2" value="1" style="pointerEvents=1;shadow=0;dashed=0;html=1;strokeColor=#008A00;fillColor=#008a00;aspect=fixed;labelPosition=center;verticalLabelPosition=bottom;verticalAlign=top;align=center;outlineConnect=0;shape=mxgraph.vvd.ethernet_port;fontColor=#000000;fontStyle=1;fontSize=20;labelBackgroundColor=#FFFFFF;" parent="1" vertex="1">
          <mxGeometry x="362.88" y="837" width="39" height="39" as="geometry" />
        </mxCell>
        <mxCell id="Kk4z2EG4zBWjRUP0n0v2-47" value="3" style="pointerEvents=1;shadow=0;dashed=0;html=1;strokeColor=#008A00;fillColor=#008a00;aspect=fixed;labelPosition=center;verticalLabelPosition=bottom;verticalAlign=top;align=center;outlineConnect=0;shape=mxgraph.vvd.ethernet_port;fontColor=#000000;fontStyle=1;fontSize=20;labelBackgroundColor=#FFFFFF;" vertex="1" parent="1">
          <mxGeometry x="418.99" y="837" width="39" height="39" as="geometry" />
        </mxCell>
        <mxCell id="Kk4z2EG4zBWjRUP0n0v2-48" value="2" style="pointerEvents=1;shadow=0;dashed=0;html=1;strokeColor=#008A00;fillColor=#008a00;aspect=fixed;labelPosition=center;verticalLabelPosition=bottom;verticalAlign=top;align=center;outlineConnect=0;shape=mxgraph.vvd.ethernet_port;fontColor=#000000;fontStyle=1;fontSize=20;labelBackgroundColor=#FFFFFF;" vertex="1" parent="1">
          <mxGeometry x="362.88" y="928" width="39" height="39" as="geometry" />
        </mxCell>
        <mxCell id="Kk4z2EG4zBWjRUP0n0v2-49" value="4" style="pointerEvents=1;shadow=0;dashed=0;html=1;strokeColor=#008A00;fillColor=#008a00;aspect=fixed;labelPosition=center;verticalLabelPosition=bottom;verticalAlign=top;align=center;outlineConnect=0;shape=mxgraph.vvd.ethernet_port;fontColor=#000000;fontStyle=1;fontSize=20;labelBackgroundColor=#FFFFFF;" vertex="1" parent="1">
          <mxGeometry x="418.99" y="928" width="39" height="39" as="geometry" />
        </mxCell>
        <mxCell id="Kk4z2EG4zBWjRUP0n0v2-50" value="5" style="pointerEvents=1;shadow=0;dashed=0;html=1;strokeColor=#008A00;fillColor=#008a00;aspect=fixed;labelPosition=center;verticalLabelPosition=bottom;verticalAlign=top;align=center;outlineConnect=0;shape=mxgraph.vvd.ethernet_port;fontColor=#000000;fontStyle=1;fontSize=20;labelBackgroundColor=#FFFFFF;" vertex="1" parent="1">
          <mxGeometry x="471.34000000000003" y="837" width="39" height="39" as="geometry" />
        </mxCell>
        <mxCell id="Kk4z2EG4zBWjRUP0n0v2-51" value="7" style="pointerEvents=1;shadow=0;dashed=0;html=1;strokeColor=#008A00;fillColor=#008a00;aspect=fixed;labelPosition=center;verticalLabelPosition=bottom;verticalAlign=top;align=center;outlineConnect=0;shape=mxgraph.vvd.ethernet_port;fontColor=#000000;fontStyle=1;fontSize=20;labelBackgroundColor=#FFFFFF;" vertex="1" parent="1">
          <mxGeometry x="527.45" y="837" width="39" height="39" as="geometry" />
        </mxCell>
        <mxCell id="Kk4z2EG4zBWjRUP0n0v2-52" value="6" style="pointerEvents=1;shadow=0;dashed=0;html=1;strokeColor=#008A00;fillColor=#008a00;aspect=fixed;labelPosition=center;verticalLabelPosition=bottom;verticalAlign=top;align=center;outlineConnect=0;shape=mxgraph.vvd.ethernet_port;fontColor=#000000;fontStyle=1;fontSize=20;labelBackgroundColor=#FFFFFF;" vertex="1" parent="1">
          <mxGeometry x="471.34000000000003" y="928" width="39" height="39" as="geometry" />
        </mxCell>
        <mxCell id="Kk4z2EG4zBWjRUP0n0v2-53" value="8" style="pointerEvents=1;shadow=0;dashed=0;html=1;strokeColor=#008A00;fillColor=#008a00;aspect=fixed;labelPosition=center;verticalLabelPosition=bottom;verticalAlign=top;align=center;outlineConnect=0;shape=mxgraph.vvd.ethernet_port;fontColor=#000000;fontStyle=1;fontSize=20;labelBackgroundColor=#FFFFFF;" vertex="1" parent="1">
          <mxGeometry x="527.45" y="928" width="39" height="39" as="geometry" />
        </mxCell>
        <mxCell id="Kk4z2EG4zBWjRUP0n0v2-63" value="9" style="pointerEvents=1;shadow=0;dashed=0;html=1;strokeColor=#008A00;fillColor=#008a00;aspect=fixed;labelPosition=center;verticalLabelPosition=bottom;verticalAlign=top;align=center;outlineConnect=0;shape=mxgraph.vvd.ethernet_port;fontColor=#000000;fontStyle=1;fontSize=20;labelBackgroundColor=#FFFFFF;" vertex="1" parent="1">
          <mxGeometry x="582.34" y="837" width="39" height="39" as="geometry" />
        </mxCell>
        <mxCell id="Kk4z2EG4zBWjRUP0n0v2-65" value="10" style="pointerEvents=1;shadow=0;dashed=0;html=1;strokeColor=#008A00;fillColor=#008a00;aspect=fixed;labelPosition=center;verticalLabelPosition=bottom;verticalAlign=top;align=center;outlineConnect=0;shape=mxgraph.vvd.ethernet_port;fontColor=#000000;fontStyle=1;fontSize=20;labelBackgroundColor=#FFFFFF;" vertex="1" parent="1">
          <mxGeometry x="582.34" y="928" width="39" height="39" as="geometry" />
        </mxCell>
        <mxCell id="Kk4z2EG4zBWjRUP0n0v2-64" value="11" style="pointerEvents=1;shadow=0;dashed=0;html=1;strokeColor=#008A00;fillColor=#008a00;aspect=fixed;labelPosition=center;verticalLabelPosition=bottom;verticalAlign=top;align=center;outlineConnect=0;shape=mxgraph.vvd.ethernet_port;fontColor=#000000;fontStyle=1;fontSize=20;labelBackgroundColor=#FFFFFF;" vertex="1" parent="1">
          <mxGeometry x="638.45" y="837" width="39" height="39" as="geometry" />
        </mxCell>
        <mxCell id="Kk4z2EG4zBWjRUP0n0v2-66" value="12" style="pointerEvents=1;shadow=0;dashed=0;html=1;strokeColor=#008A00;fillColor=#008a00;aspect=fixed;labelPosition=center;verticalLabelPosition=bottom;verticalAlign=top;align=center;outlineConnect=0;shape=mxgraph.vvd.ethernet_port;fontColor=#000000;fontStyle=1;fontSize=20;labelBackgroundColor=#FFFFFF;" vertex="1" parent="1">
          <mxGeometry x="638.45" y="928" width="39" height="39" as="geometry" />
        </mxCell>
        <mxCell id="Kk4z2EG4zBWjRUP0n0v2-67" value="13" style="pointerEvents=1;shadow=0;dashed=0;html=1;strokeColor=#008A00;fillColor=#008a00;aspect=fixed;labelPosition=center;verticalLabelPosition=bottom;verticalAlign=top;align=center;outlineConnect=0;shape=mxgraph.vvd.ethernet_port;fontColor=#000000;fontStyle=1;fontSize=20;labelBackgroundColor=#FFFFFF;" vertex="1" parent="1">
          <mxGeometry x="690.8" y="837" width="39" height="39" as="geometry" />
        </mxCell>
        <mxCell id="Kk4z2EG4zBWjRUP0n0v2-68" value="15" style="pointerEvents=1;shadow=0;dashed=0;html=1;strokeColor=#008A00;fillColor=#008a00;aspect=fixed;labelPosition=center;verticalLabelPosition=bottom;verticalAlign=top;align=center;outlineConnect=0;shape=mxgraph.vvd.ethernet_port;fontColor=#000000;fontStyle=1;fontSize=20;labelBackgroundColor=#FFFFFF;" vertex="1" parent="1">
          <mxGeometry x="746.91" y="837" width="39" height="39" as="geometry" />
        </mxCell>
        <mxCell id="Kk4z2EG4zBWjRUP0n0v2-69" value="14" style="pointerEvents=1;shadow=0;dashed=0;html=1;strokeColor=#008A00;fillColor=#008a00;aspect=fixed;labelPosition=center;verticalLabelPosition=bottom;verticalAlign=top;align=center;outlineConnect=0;shape=mxgraph.vvd.ethernet_port;fontColor=#000000;fontStyle=1;fontSize=20;labelBackgroundColor=#FFFFFF;" vertex="1" parent="1">
          <mxGeometry x="690.8" y="928" width="39" height="39" as="geometry" />
        </mxCell>
        <mxCell id="Kk4z2EG4zBWjRUP0n0v2-70" value="16" style="pointerEvents=1;shadow=0;dashed=0;html=1;strokeColor=#008A00;fillColor=#008a00;aspect=fixed;labelPosition=center;verticalLabelPosition=bottom;verticalAlign=top;align=center;outlineConnect=0;shape=mxgraph.vvd.ethernet_port;fontColor=#000000;fontStyle=1;fontSize=20;labelBackgroundColor=#FFFFFF;" vertex="1" parent="1">
          <mxGeometry x="746.91" y="928" width="39" height="39" as="geometry" />
        </mxCell>
        <mxCell id="Kk4z2EG4zBWjRUP0n0v2-71" value="17" style="pointerEvents=1;shadow=0;dashed=0;html=1;strokeColor=#008A00;fillColor=#008a00;aspect=fixed;labelPosition=center;verticalLabelPosition=bottom;verticalAlign=top;align=center;outlineConnect=0;shape=mxgraph.vvd.ethernet_port;fontColor=#000000;fontStyle=1;fontSize=20;labelBackgroundColor=#FFFFFF;" vertex="1" parent="1">
          <mxGeometry x="803.77" y="837" width="39" height="39" as="geometry" />
        </mxCell>
        <mxCell id="Kk4z2EG4zBWjRUP0n0v2-72" value="19" style="pointerEvents=1;shadow=0;dashed=0;html=1;strokeColor=#008A00;fillColor=#008a00;aspect=fixed;labelPosition=center;verticalLabelPosition=bottom;verticalAlign=top;align=center;outlineConnect=0;shape=mxgraph.vvd.ethernet_port;fontColor=#000000;fontStyle=1;fontSize=20;labelBackgroundColor=#FFFFFF;" vertex="1" parent="1">
          <mxGeometry x="859.8799999999999" y="837" width="39" height="39" as="geometry" />
        </mxCell>
        <mxCell id="Kk4z2EG4zBWjRUP0n0v2-73" value="18" style="pointerEvents=1;shadow=0;dashed=0;html=1;strokeColor=#008A00;fillColor=#008a00;aspect=fixed;labelPosition=center;verticalLabelPosition=bottom;verticalAlign=top;align=center;outlineConnect=0;shape=mxgraph.vvd.ethernet_port;fontColor=#000000;fontStyle=1;fontSize=20;labelBackgroundColor=#FFFFFF;" vertex="1" parent="1">
          <mxGeometry x="803.77" y="928" width="39" height="39" as="geometry" />
        </mxCell>
        <mxCell id="Kk4z2EG4zBWjRUP0n0v2-74" value="20" style="pointerEvents=1;shadow=0;dashed=0;html=1;strokeColor=#008A00;fillColor=#008a00;aspect=fixed;labelPosition=center;verticalLabelPosition=bottom;verticalAlign=top;align=center;outlineConnect=0;shape=mxgraph.vvd.ethernet_port;fontColor=#000000;fontStyle=1;fontSize=20;labelBackgroundColor=#FFFFFF;" vertex="1" parent="1">
          <mxGeometry x="859.8799999999999" y="928" width="39" height="39" as="geometry" />
        </mxCell>
        <mxCell id="Kk4z2EG4zBWjRUP0n0v2-75" value="21" style="pointerEvents=1;shadow=0;dashed=0;html=1;strokeColor=#008A00;fillColor=#008a00;aspect=fixed;labelPosition=center;verticalLabelPosition=bottom;verticalAlign=top;align=center;outlineConnect=0;shape=mxgraph.vvd.ethernet_port;fontColor=#000000;fontStyle=1;fontSize=20;labelBackgroundColor=#FFFFFF;" vertex="1" parent="1">
          <mxGeometry x="912.2299999999999" y="837" width="39" height="39" as="geometry" />
        </mxCell>
        <mxCell id="Kk4z2EG4zBWjRUP0n0v2-76" value="23" style="pointerEvents=1;shadow=0;dashed=0;html=1;strokeColor=#008A00;fillColor=#008a00;aspect=fixed;labelPosition=center;verticalLabelPosition=bottom;verticalAlign=top;align=center;outlineConnect=0;shape=mxgraph.vvd.ethernet_port;fontColor=#000000;fontStyle=1;fontSize=20;labelBackgroundColor=#FFFFFF;" vertex="1" parent="1">
          <mxGeometry x="968.3399999999999" y="837" width="39" height="39" as="geometry" />
        </mxCell>
        <mxCell id="Kk4z2EG4zBWjRUP0n0v2-77" value="22" style="pointerEvents=1;shadow=0;dashed=0;html=1;strokeColor=#008A00;fillColor=#008a00;aspect=fixed;labelPosition=center;verticalLabelPosition=bottom;verticalAlign=top;align=center;outlineConnect=0;shape=mxgraph.vvd.ethernet_port;fontColor=#000000;fontStyle=1;fontSize=20;labelBackgroundColor=#FFFFFF;" vertex="1" parent="1">
          <mxGeometry x="912.2299999999999" y="928" width="39" height="39" as="geometry" />
        </mxCell>
        <mxCell id="Kk4z2EG4zBWjRUP0n0v2-78" value="24" style="pointerEvents=1;shadow=0;dashed=0;html=1;strokeColor=#008A00;fillColor=#008a00;aspect=fixed;labelPosition=center;verticalLabelPosition=bottom;verticalAlign=top;align=center;outlineConnect=0;shape=mxgraph.vvd.ethernet_port;fontColor=#000000;fontStyle=1;fontSize=20;labelBackgroundColor=#FFFFFF;" vertex="1" parent="1">
          <mxGeometry x="968.3399999999999" y="928" width="39" height="39" as="geometry" />
        </mxCell>
        <mxCell id="Kk4z2EG4zBWjRUP0n0v2-79" value="25" style="pointerEvents=1;shadow=0;dashed=0;html=1;strokeColor=#008A00;fillColor=#008a00;aspect=fixed;labelPosition=center;verticalLabelPosition=bottom;verticalAlign=top;align=center;outlineConnect=0;shape=mxgraph.vvd.ethernet_port;fontColor=#000000;fontStyle=1;fontSize=20;labelBackgroundColor=#FFFFFF;" vertex="1" parent="1">
          <mxGeometry x="1023.2299999999999" y="837" width="39" height="39" as="geometry" />
        </mxCell>
        <mxCell id="Kk4z2EG4zBWjRUP0n0v2-80" value="27" style="pointerEvents=1;shadow=0;dashed=0;html=1;strokeColor=#008A00;fillColor=#008a00;aspect=fixed;labelPosition=center;verticalLabelPosition=bottom;verticalAlign=top;align=center;outlineConnect=0;shape=mxgraph.vvd.ethernet_port;fontColor=#000000;fontStyle=1;fontSize=20;labelBackgroundColor=#FFFFFF;" vertex="1" parent="1">
          <mxGeometry x="1079.34" y="837" width="39" height="39" as="geometry" />
        </mxCell>
        <mxCell id="Kk4z2EG4zBWjRUP0n0v2-81" value="26" style="pointerEvents=1;shadow=0;dashed=0;html=1;strokeColor=#008A00;fillColor=#008a00;aspect=fixed;labelPosition=center;verticalLabelPosition=bottom;verticalAlign=top;align=center;outlineConnect=0;shape=mxgraph.vvd.ethernet_port;fontColor=#000000;fontStyle=1;fontSize=20;labelBackgroundColor=#FFFFFF;" vertex="1" parent="1">
          <mxGeometry x="1023.2299999999999" y="928" width="39" height="39" as="geometry" />
        </mxCell>
        <mxCell id="Kk4z2EG4zBWjRUP0n0v2-82" value="28" style="pointerEvents=1;shadow=0;dashed=0;html=1;strokeColor=#008A00;fillColor=#008a00;aspect=fixed;labelPosition=center;verticalLabelPosition=bottom;verticalAlign=top;align=center;outlineConnect=0;shape=mxgraph.vvd.ethernet_port;fontColor=#000000;fontStyle=1;fontSize=20;labelBackgroundColor=#FFFFFF;" vertex="1" parent="1">
          <mxGeometry x="1079.34" y="928" width="39" height="39" as="geometry" />
        </mxCell>
        <mxCell id="Kk4z2EG4zBWjRUP0n0v2-83" value="29" style="pointerEvents=1;shadow=0;dashed=0;html=1;strokeColor=#008A00;fillColor=#008a00;aspect=fixed;labelPosition=center;verticalLabelPosition=bottom;verticalAlign=top;align=center;outlineConnect=0;shape=mxgraph.vvd.ethernet_port;fontColor=#000000;fontStyle=1;fontSize=20;labelBackgroundColor=#FFFFFF;" vertex="1" parent="1">
          <mxGeometry x="1131.6899999999998" y="837" width="39" height="39" as="geometry" />
        </mxCell>
        <mxCell id="Kk4z2EG4zBWjRUP0n0v2-84" value="31" style="pointerEvents=1;shadow=0;dashed=0;html=1;strokeColor=#008A00;fillColor=#008a00;aspect=fixed;labelPosition=center;verticalLabelPosition=bottom;verticalAlign=top;align=center;outlineConnect=0;shape=mxgraph.vvd.ethernet_port;fontColor=#000000;fontStyle=1;fontSize=20;labelBackgroundColor=#FFFFFF;" vertex="1" parent="1">
          <mxGeometry x="1187.8000000000002" y="837" width="39" height="39" as="geometry" />
        </mxCell>
        <mxCell id="Kk4z2EG4zBWjRUP0n0v2-85" value="30" style="pointerEvents=1;shadow=0;dashed=0;html=1;strokeColor=#008A00;fillColor=#008a00;aspect=fixed;labelPosition=center;verticalLabelPosition=bottom;verticalAlign=top;align=center;outlineConnect=0;shape=mxgraph.vvd.ethernet_port;fontColor=#000000;fontStyle=1;fontSize=20;labelBackgroundColor=#FFFFFF;" vertex="1" parent="1">
          <mxGeometry x="1131.6899999999998" y="928" width="39" height="39" as="geometry" />
        </mxCell>
        <mxCell id="Kk4z2EG4zBWjRUP0n0v2-86" value="32" style="pointerEvents=1;shadow=0;dashed=0;html=1;strokeColor=#008A00;fillColor=#008a00;aspect=fixed;labelPosition=center;verticalLabelPosition=bottom;verticalAlign=top;align=center;outlineConnect=0;shape=mxgraph.vvd.ethernet_port;fontColor=#000000;fontStyle=1;fontSize=20;labelBackgroundColor=#FFFFFF;" vertex="1" parent="1">
          <mxGeometry x="1187.8000000000002" y="928" width="39" height="39" as="geometry" />
        </mxCell>
        <mxCell id="Kk4z2EG4zBWjRUP0n0v2-87" value="33" style="pointerEvents=1;shadow=0;dashed=0;html=1;strokeColor=#008A00;fillColor=#008a00;aspect=fixed;labelPosition=center;verticalLabelPosition=bottom;verticalAlign=top;align=center;outlineConnect=0;shape=mxgraph.vvd.ethernet_port;fontColor=#000000;fontStyle=1;fontSize=20;labelBackgroundColor=#FFFFFF;" vertex="1" parent="1">
          <mxGeometry x="1240.34" y="837" width="39" height="39" as="geometry" />
        </mxCell>
        <mxCell id="Kk4z2EG4zBWjRUP0n0v2-88" value="34" style="pointerEvents=1;shadow=0;dashed=0;html=1;strokeColor=#008A00;fillColor=#008a00;aspect=fixed;labelPosition=center;verticalLabelPosition=bottom;verticalAlign=top;align=center;outlineConnect=0;shape=mxgraph.vvd.ethernet_port;fontColor=#000000;fontStyle=1;fontSize=20;labelBackgroundColor=#FFFFFF;" vertex="1" parent="1">
          <mxGeometry x="1240.34" y="928" width="39" height="39" as="geometry" />
        </mxCell>
        <mxCell id="Kk4z2EG4zBWjRUP0n0v2-89" value="35" style="pointerEvents=1;shadow=0;dashed=0;html=1;strokeColor=#008A00;fillColor=#008a00;aspect=fixed;labelPosition=center;verticalLabelPosition=bottom;verticalAlign=top;align=center;outlineConnect=0;shape=mxgraph.vvd.ethernet_port;fontColor=#000000;fontStyle=1;fontSize=20;labelBackgroundColor=#FFFFFF;" vertex="1" parent="1">
          <mxGeometry x="1292.6899999999998" y="837" width="39" height="39" as="geometry" />
        </mxCell>
        <mxCell id="Kk4z2EG4zBWjRUP0n0v2-90" value="37" style="pointerEvents=1;shadow=0;dashed=0;html=1;strokeColor=#008A00;fillColor=#008a00;aspect=fixed;labelPosition=center;verticalLabelPosition=bottom;verticalAlign=top;align=center;outlineConnect=0;shape=mxgraph.vvd.ethernet_port;fontColor=#000000;fontStyle=1;fontSize=20;labelBackgroundColor=#FFFFFF;" vertex="1" parent="1">
          <mxGeometry x="1348.8" y="837" width="39" height="39" as="geometry" />
        </mxCell>
        <mxCell id="Kk4z2EG4zBWjRUP0n0v2-91" value="36" style="pointerEvents=1;shadow=0;dashed=0;html=1;strokeColor=#008A00;fillColor=#008a00;aspect=fixed;labelPosition=center;verticalLabelPosition=bottom;verticalAlign=top;align=center;outlineConnect=0;shape=mxgraph.vvd.ethernet_port;fontColor=#000000;fontStyle=1;fontSize=20;labelBackgroundColor=#FFFFFF;" vertex="1" parent="1">
          <mxGeometry x="1292.6899999999998" y="928" width="39" height="39" as="geometry" />
        </mxCell>
        <mxCell id="Kk4z2EG4zBWjRUP0n0v2-92" value="38" style="pointerEvents=1;shadow=0;dashed=0;html=1;strokeColor=#008A00;fillColor=#008a00;aspect=fixed;labelPosition=center;verticalLabelPosition=bottom;verticalAlign=top;align=center;outlineConnect=0;shape=mxgraph.vvd.ethernet_port;fontColor=#000000;fontStyle=1;fontSize=20;labelBackgroundColor=#FFFFFF;" vertex="1" parent="1">
          <mxGeometry x="1348.8" y="928" width="39" height="39" as="geometry" />
        </mxCell>
        <mxCell id="Kk4z2EG4zBWjRUP0n0v2-94" value="39" style="pointerEvents=1;shadow=0;dashed=0;html=1;strokeColor=#008A00;fillColor=#008a00;aspect=fixed;labelPosition=center;verticalLabelPosition=bottom;verticalAlign=top;align=center;outlineConnect=0;shape=mxgraph.vvd.ethernet_port;fontColor=#000000;fontStyle=1;fontSize=20;labelBackgroundColor=#FFFFFF;" vertex="1" parent="1">
          <mxGeometry x="1402.23" y="837" width="39" height="39" as="geometry" />
        </mxCell>
        <mxCell id="Kk4z2EG4zBWjRUP0n0v2-95" value="41" style="pointerEvents=1;shadow=0;dashed=0;html=1;strokeColor=#008A00;fillColor=#008a00;aspect=fixed;labelPosition=center;verticalLabelPosition=bottom;verticalAlign=top;align=center;outlineConnect=0;shape=mxgraph.vvd.ethernet_port;fontColor=#000000;fontStyle=1;fontSize=20;labelBackgroundColor=#FFFFFF;" vertex="1" parent="1">
          <mxGeometry x="1458.3400000000001" y="837" width="39" height="39" as="geometry" />
        </mxCell>
        <mxCell id="Kk4z2EG4zBWjRUP0n0v2-96" value="40" style="pointerEvents=1;shadow=0;dashed=0;html=1;strokeColor=#008A00;fillColor=#008a00;aspect=fixed;labelPosition=center;verticalLabelPosition=bottom;verticalAlign=top;align=center;outlineConnect=0;shape=mxgraph.vvd.ethernet_port;fontColor=#000000;fontStyle=1;fontSize=20;labelBackgroundColor=#FFFFFF;" vertex="1" parent="1">
          <mxGeometry x="1402.23" y="928" width="39" height="39" as="geometry" />
        </mxCell>
        <mxCell id="Kk4z2EG4zBWjRUP0n0v2-97" value="42" style="pointerEvents=1;shadow=0;dashed=0;html=1;strokeColor=#008A00;fillColor=#008a00;aspect=fixed;labelPosition=center;verticalLabelPosition=bottom;verticalAlign=top;align=center;outlineConnect=0;shape=mxgraph.vvd.ethernet_port;fontColor=#000000;fontStyle=1;fontSize=20;labelBackgroundColor=#FFFFFF;" vertex="1" parent="1">
          <mxGeometry x="1458.3400000000001" y="928" width="39" height="39" as="geometry" />
        </mxCell>
        <mxCell id="Kk4z2EG4zBWjRUP0n0v2-98" value="43" style="pointerEvents=1;shadow=0;dashed=0;html=1;strokeColor=#008A00;fillColor=#008a00;aspect=fixed;labelPosition=center;verticalLabelPosition=bottom;verticalAlign=top;align=center;outlineConnect=0;shape=mxgraph.vvd.ethernet_port;fontColor=#000000;fontStyle=1;fontSize=20;labelBackgroundColor=#FFFFFF;" vertex="1" parent="1">
          <mxGeometry x="1510.8799999999999" y="837" width="39" height="39" as="geometry" />
        </mxCell>
        <mxCell id="Kk4z2EG4zBWjRUP0n0v2-99" value="44" style="pointerEvents=1;shadow=0;dashed=0;html=1;strokeColor=#008A00;fillColor=#008a00;aspect=fixed;labelPosition=center;verticalLabelPosition=bottom;verticalAlign=top;align=center;outlineConnect=0;shape=mxgraph.vvd.ethernet_port;fontColor=#000000;fontStyle=1;fontSize=20;labelBackgroundColor=#FFFFFF;" vertex="1" parent="1">
          <mxGeometry x="1510.8799999999999" y="928" width="39" height="39" as="geometry" />
        </mxCell>
        <mxCell id="Kk4z2EG4zBWjRUP0n0v2-100" value="45" style="pointerEvents=1;shadow=0;dashed=0;html=1;strokeColor=#008A00;fillColor=#008a00;aspect=fixed;labelPosition=center;verticalLabelPosition=bottom;verticalAlign=top;align=center;outlineConnect=0;shape=mxgraph.vvd.ethernet_port;fontColor=#000000;fontStyle=1;fontSize=20;labelBackgroundColor=#FFFFFF;" vertex="1" parent="1">
          <mxGeometry x="1563.2299999999998" y="837" width="39" height="39" as="geometry" />
        </mxCell>
        <mxCell id="Kk4z2EG4zBWjRUP0n0v2-101" value="47" style="pointerEvents=1;shadow=0;dashed=0;html=1;strokeColor=#CC0000;fillColor=#CC0000;aspect=fixed;labelPosition=center;verticalLabelPosition=bottom;verticalAlign=top;align=center;outlineConnect=0;shape=mxgraph.vvd.ethernet_port;fontColor=#000000;fontStyle=1;fontSize=20;labelBackgroundColor=#FFFFFF;" vertex="1" parent="1">
          <mxGeometry x="1619.34" y="837" width="39" height="39" as="geometry" />
        </mxCell>
        <mxCell id="Kk4z2EG4zBWjRUP0n0v2-102" value="46" style="pointerEvents=1;shadow=0;dashed=0;html=1;strokeColor=#008A00;fillColor=#008a00;aspect=fixed;labelPosition=center;verticalLabelPosition=bottom;verticalAlign=top;align=center;outlineConnect=0;shape=mxgraph.vvd.ethernet_port;fontColor=#000000;fontStyle=1;fontSize=20;labelBackgroundColor=#FFFFFF;" vertex="1" parent="1">
          <mxGeometry x="1563.2299999999998" y="928" width="39" height="39" as="geometry" />
        </mxCell>
        <mxCell id="Kk4z2EG4zBWjRUP0n0v2-103" value="48" style="pointerEvents=1;shadow=0;dashed=0;html=1;strokeColor=#008A00;fillColor=#008a00;aspect=fixed;labelPosition=center;verticalLabelPosition=bottom;verticalAlign=top;align=center;outlineConnect=0;shape=mxgraph.vvd.ethernet_port;fontColor=#000000;fontStyle=1;fontSize=20;labelBackgroundColor=#FFFFFF;" vertex="1" parent="1">
          <mxGeometry x="1619.34" y="928" width="39" height="39" as="geometry" />
        </mxCell>
        <mxCell id="Kk4z2EG4zBWjRUP0n0v2-110" value="" style="rounded=1;whiteSpace=wrap;html=1;fontStyle=1;labelBackgroundColor=#FFFFFF;fontColor=#000000;" vertex="1" parent="1">
          <mxGeometry x="734.76" y="574" width="486.64" height="120.11" as="geometry" />
        </mxCell>
        <mxCell id="Kk4z2EG4zBWjRUP0n0v2-120" value="1" style="pointerEvents=1;shadow=0;dashed=0;html=1;strokeColor=#CC0000;fillColor=#CC0000;aspect=fixed;labelPosition=center;verticalLabelPosition=bottom;verticalAlign=top;align=center;outlineConnect=0;shape=mxgraph.vvd.ethernet_port;fontColor=#000000;fontStyle=1;fontSize=20;labelBackgroundColor=#FFFFFF;" vertex="1" parent="1">
          <mxGeometry x="763.0300000000001" y="618.56" width="39" height="39" as="geometry" />
        </mxCell>
        <mxCell id="Kk4z2EG4zBWjRUP0n0v2-121" value="2" style="pointerEvents=1;shadow=0;dashed=0;html=1;strokeColor=#CC0000;fillColor=#CC0000;aspect=fixed;labelPosition=center;verticalLabelPosition=bottom;verticalAlign=top;align=center;outlineConnect=0;shape=mxgraph.vvd.ethernet_port;fontColor=#000000;fontStyle=1;fontSize=20;labelBackgroundColor=#FFFFFF;" vertex="1" parent="1">
          <mxGeometry x="819.14" y="618.56" width="39" height="39" as="geometry" />
        </mxCell>
        <mxCell id="Kk4z2EG4zBWjRUP0n0v2-122" value="5" style="pointerEvents=1;shadow=0;dashed=0;html=1;strokeColor=#008A00;fillColor=#008a00;aspect=fixed;labelPosition=center;verticalLabelPosition=bottom;verticalAlign=top;align=center;outlineConnect=0;shape=mxgraph.vvd.ethernet_port;fontColor=#000000;fontStyle=1;fontSize=20;labelBackgroundColor=#FFFFFF;" vertex="1" parent="1">
          <mxGeometry x="978.8300000000002" y="618.56" width="39" height="39" as="geometry" />
        </mxCell>
        <mxCell id="Kk4z2EG4zBWjRUP0n0v2-123" value="6" style="pointerEvents=1;shadow=0;dashed=0;html=1;strokeColor=#008A00;fillColor=#008a00;aspect=fixed;labelPosition=center;verticalLabelPosition=bottom;verticalAlign=top;align=center;outlineConnect=0;shape=mxgraph.vvd.ethernet_port;fontColor=#000000;fontStyle=1;fontSize=20;labelBackgroundColor=#FFFFFF;" vertex="1" parent="1">
          <mxGeometry x="1034.94" y="618.56" width="39" height="39" as="geometry" />
        </mxCell>
        <mxCell id="Kk4z2EG4zBWjRUP0n0v2-124" value="3" style="pointerEvents=1;shadow=0;dashed=0;html=1;strokeColor=#CC0000;fillColor=#CC0000;aspect=fixed;labelPosition=center;verticalLabelPosition=bottom;verticalAlign=top;align=center;outlineConnect=0;shape=mxgraph.vvd.ethernet_port;fontColor=#000000;fontStyle=1;fontSize=20;labelBackgroundColor=#FFFFFF;" vertex="1" parent="1">
          <mxGeometry x="871.4900000000001" y="618.56" width="39" height="39" as="geometry" />
        </mxCell>
        <mxCell id="Kk4z2EG4zBWjRUP0n0v2-125" value="4" style="pointerEvents=1;shadow=0;dashed=0;html=1;strokeColor=#008A00;fillColor=#008a00;aspect=fixed;labelPosition=center;verticalLabelPosition=bottom;verticalAlign=top;align=center;outlineConnect=0;shape=mxgraph.vvd.ethernet_port;fontColor=#000000;fontStyle=1;fontSize=20;labelBackgroundColor=#FFFFFF;" vertex="1" parent="1">
          <mxGeometry x="927.6" y="618.56" width="39" height="39" as="geometry" />
        </mxCell>
        <mxCell id="Kk4z2EG4zBWjRUP0n0v2-126" value="7" style="pointerEvents=1;shadow=0;dashed=0;html=1;strokeColor=#008A00;fillColor=#008a00;aspect=fixed;labelPosition=center;verticalLabelPosition=bottom;verticalAlign=top;align=center;outlineConnect=0;shape=mxgraph.vvd.ethernet_port;fontColor=#000000;fontStyle=1;fontSize=20;labelBackgroundColor=#FFFFFF;" vertex="1" parent="1">
          <mxGeometry x="1087.2900000000002" y="618.56" width="39" height="39" as="geometry" />
        </mxCell>
        <mxCell id="Kk4z2EG4zBWjRUP0n0v2-127" value="8" style="pointerEvents=1;shadow=0;dashed=0;html=1;strokeColor=#CC0000;fillColor=#CC0000;aspect=fixed;labelPosition=center;verticalLabelPosition=bottom;verticalAlign=top;align=center;outlineConnect=0;shape=mxgraph.vvd.ethernet_port;fontColor=#000000;fontStyle=1;fontSize=20;labelBackgroundColor=#FFFFFF;" vertex="1" parent="1">
          <mxGeometry x="1143.4" y="618.56" width="39" height="39" as="geometry" />
        </mxCell>
        <mxCell id="Kk4z2EG4zBWjRUP0n0v2-46" style="edgeStyle=orthogonalEdgeStyle;orthogonalLoop=1;jettySize=auto;html=1;endArrow=none;endFill=0;strokeWidth=4;fontSize=18;fillColor=#0050ef;strokeColor=#001DBC;fontStyle=1;labelBackgroundColor=#FFFFFF;fontColor=#000000;rounded=1;" edge="1" parent="1" source="Kk4z2EG4zBWjRUP0n0v2-101" target="Kk4z2EG4zBWjRUP0n0v2-127">
          <mxGeometry relative="1" as="geometry">
            <Array as="points">
              <mxPoint x="1640" y="700" />
              <mxPoint x="1170" y="700" />
            </Array>
            <mxPoint x="497.55999999999995" y="878" as="sourcePoint" />
            <mxPoint x="90.00000000000006" y="928" as="targetPoint" />
          </mxGeometry>
        </mxCell>
        <mxCell id="Kk4z2EG4zBWjRUP0n0v2-128" value="SWICTH" style="text;html=1;strokeColor=none;fillColor=none;align=center;verticalAlign=middle;whiteSpace=wrap;rounded=0;fontStyle=1;fontSize=21;labelBackgroundColor=#FFFFFF;fontColor=#000000;" vertex="1" parent="1">
          <mxGeometry x="860.99" y="574" width="206.2" height="36" as="geometry" />
        </mxCell>
        <mxCell id="Kk4z2EG4zBWjRUP0n0v2-132" value="" style="ellipse;shape=cloud;whiteSpace=wrap;html=1;verticalAlign=top;shadow=1;" vertex="1" parent="1">
          <mxGeometry x="808.5699999999999" y="119" width="345.22" height="220" as="geometry" />
        </mxCell>
        <mxCell id="Kk4z2EG4zBWjRUP0n0v2-135" value="Internet" style="text;html=1;strokeColor=none;fillColor=none;align=center;verticalAlign=middle;whiteSpace=wrap;rounded=0;fontStyle=1;fontSize=40;labelBackgroundColor=#FFFFFF;fontColor=#000000;" vertex="1" parent="1">
          <mxGeometry x="892.33" y="209" width="190" height="40" as="geometry" />
        </mxCell>
        <mxCell id="Kk4z2EG4zBWjRUP0n0v2-139" value="" style="rounded=1;whiteSpace=wrap;html=1;fontStyle=1;labelBackgroundColor=#FFFFFF;fontColor=#000000;" vertex="1" parent="1">
          <mxGeometry x="897.4000000000001" y="420" width="164" height="69" as="geometry" />
        </mxCell>
        <mxCell id="Kk4z2EG4zBWjRUP0n0v2-140" value="" style="rounded=1;whiteSpace=wrap;html=1;fontStyle=1;labelBackgroundColor=#FFFFFF;fontColor=#000000;" vertex="1" parent="1">
          <mxGeometry x="1110" y="420" width="164" height="69" as="geometry" />
        </mxCell>
        <mxCell id="Kk4z2EG4zBWjRUP0n0v2-143" value="MUNDIVOX" style="text;html=1;strokeColor=none;fillColor=none;align=center;verticalAlign=middle;whiteSpace=wrap;rounded=0;fontStyle=1;fontSize=18;labelBackgroundColor=#FFFFFF;fontColor=#000000;" vertex="1" parent="1">
          <mxGeometry x="916.51" y="436.5" width="123.14" height="36" as="geometry" />
        </mxCell>
        <mxCell id="Kk4z2EG4zBWjRUP0n0v2-144" value="VIVO" style="text;html=1;strokeColor=none;fillColor=none;align=center;verticalAlign=middle;whiteSpace=wrap;rounded=0;fontStyle=1;fontSize=18;labelBackgroundColor=#FFFFFF;fontColor=#000000;" vertex="1" parent="1">
          <mxGeometry x="1130.4300000000003" y="436.5" width="123.14" height="36" as="geometry" />
        </mxCell>
        <mxCell id="Kk4z2EG4zBWjRUP0n0v2-145" style="edgeStyle=orthogonalEdgeStyle;orthogonalLoop=1;jettySize=auto;html=1;endArrow=none;endFill=0;strokeWidth=4;fontSize=18;fillColor=#0050ef;strokeColor=#001DBC;fontStyle=1;labelBackgroundColor=#FFFFFF;fontColor=#000000;rounded=1;entryX=0.5;entryY=1;entryDx=0;entryDy=0;" edge="1" parent="1" source="Kk4z2EG4zBWjRUP0n0v2-120" target="Kk4z2EG4zBWjRUP0n0v2-146">
          <mxGeometry relative="1" as="geometry">
            <Array as="points">
              <mxPoint x="780" y="489" />
            </Array>
            <mxPoint x="677.45" y="599" as="sourcePoint" />
            <mxPoint x="760" y="500" as="targetPoint" />
          </mxGeometry>
        </mxCell>
        <mxCell id="Kk4z2EG4zBWjRUP0n0v2-146" value="" style="rounded=1;whiteSpace=wrap;html=1;fontStyle=1;labelBackgroundColor=#FFFFFF;fontColor=#000000;" vertex="1" parent="1">
          <mxGeometry x="684.4100000000001" y="420" width="164" height="69" as="geometry" />
        </mxCell>
        <mxCell id="Kk4z2EG4zBWjRUP0n0v2-147" value="MUNDIVOX" style="text;html=1;strokeColor=none;fillColor=none;align=center;verticalAlign=middle;whiteSpace=wrap;rounded=0;fontStyle=1;fontSize=18;labelBackgroundColor=#FFFFFF;fontColor=#000000;" vertex="1" parent="1">
          <mxGeometry x="704.84" y="439" width="123.14" height="36" as="geometry" />
        </mxCell>
        <mxCell id="Kk4z2EG4zBWjRUP0n0v2-148" style="edgeStyle=orthogonalEdgeStyle;orthogonalLoop=1;jettySize=auto;html=1;endArrow=none;endFill=0;strokeWidth=4;fontSize=18;fillColor=#0050ef;strokeColor=#001DBC;fontStyle=1;labelBackgroundColor=#FFFFFF;fontColor=#000000;rounded=1;entryX=0.5;entryY=1;entryDx=0;entryDy=0;" edge="1" parent="1" source="Kk4z2EG4zBWjRUP0n0v2-121" target="Kk4z2EG4zBWjRUP0n0v2-139">
          <mxGeometry relative="1" as="geometry">
            <Array as="points">
              <mxPoint x="830" y="520" />
              <mxPoint x="979" y="520" />
            </Array>
            <mxPoint x="776" y="595" as="sourcePoint" />
            <mxPoint x="776" y="499" as="targetPoint" />
          </mxGeometry>
        </mxCell>
        <mxCell id="Kk4z2EG4zBWjRUP0n0v2-149" style="edgeStyle=orthogonalEdgeStyle;orthogonalLoop=1;jettySize=auto;html=1;endArrow=none;endFill=0;strokeWidth=4;fontSize=18;fillColor=#0050ef;strokeColor=#001DBC;fontStyle=1;labelBackgroundColor=#FFFFFF;fontColor=#000000;rounded=1;entryX=0.5;entryY=1;entryDx=0;entryDy=0;" edge="1" parent="1" source="Kk4z2EG4zBWjRUP0n0v2-124" target="Kk4z2EG4zBWjRUP0n0v2-140">
          <mxGeometry relative="1" as="geometry">
            <Array as="points">
              <mxPoint x="886" y="530" />
              <mxPoint x="1192" y="530" />
            </Array>
            <mxPoint x="840" y="595" as="sourcePoint" />
            <mxPoint x="989" y="499" as="targetPoint" />
          </mxGeometry>
        </mxCell>
        <mxCell id="Kk4z2EG4zBWjRUP0n0v2-150" value="" style="html=1;outlineConnect=0;fillColor=#cdeb8b;strokeColor=#36393d;gradientDirection=north;strokeWidth=2;shape=mxgraph.networks.comm_link_edge;html=1;rounded=0;fontFamily=Helvetica;fontSize=12;fontColor=default;" edge="1" parent="1">
          <mxGeometry width="100" height="100" relative="1" as="geometry">
            <mxPoint x="928.83" y="389" as="sourcePoint" />
            <mxPoint x="978.83" y="339" as="targetPoint" />
            <Array as="points">
              <mxPoint x="928.83" y="389" />
            </Array>
          </mxGeometry>
        </mxCell>
      </root>
    </mxGraphModel>
  </diagram>
</mxfile>
